<?xml version="1.0" standalone="no"?>
<!DOCTYPE svg PUBLIC "-//W3C//DTD SVG 20010904//EN"
 "http://www.w3.org/TR/2001/REC-SVG-20010904/DTD/svg10.dtd">
<svg version="1.0" xmlns="http://www.w3.org/2000/svg"
 width="260.000000pt" height="260.000000pt" viewBox="0 0 260.000000 260.000000"
 preserveAspectRatio="xMidYMid meet">
<metadata>
Created by potrace 1.11, written by Peter Selinger 2001-2013
</metadata>
<g transform="translate(0.000000,260.000000) scale(0.100000,-0.100000)"
fill="#000000" stroke="none">
<path d="M1076 2564 c-108 -20 -277 -77 -361 -123 l-70 -38 2 -184 c2 -101 5
-217 9 -257 l6 -73 51 48 c100 94 244 173 377 207 141 37 328 31 465 -14 l60
-20 225 96 c124 52 229 99 233 103 5 5 -26 32 -69 60 -145 97 -316 166 -491
196 -107 19 -331 18 -437 -1z"/>
<path d="M459 2266 c-295 -254 -461 -663 -429 -1058 15 -176 7 -163 119 -198
256 -79 386 -118 388 -116 1 1 -13 38 -32 82 -51 119 -69 223 -62 368 7 170
49 304 135 436 l29 45 -31 247 c-17 135 -34 249 -37 252 -3 3 -39 -23 -80 -58z"/>
<path d="M1935 2164 c-121 -41 -226 -76 -234 -79 -9 -4 8 -19 44 -41 250 -150
414 -437 415 -729 l0 -60 168 -187 c127 -143 169 -184 175 -172 5 8 20 58 34
112 35 134 43 355 18 503 -42 250 -155 484 -319 657 -38 39 -71 72 -75 71 -3
0 -105 -34 -226 -75z"/>
<path d="M1227 1198 c8 -75 41 -171 79 -231 36 -58 37 -59 73 -52 63 11 134
50 191 104 l55 52 -37 -6 c-110 -17 -283 58 -335 146 -24 40 -32 36 -26 -13z"/>
<path d="M2145 1144 c-43 -203 -154 -387 -309 -510 -72 -57 -190 -123 -262
-144 -39 -12 -45 -20 -170 -227 -71 -119 -131 -220 -133 -226 -5 -14 174 -2
274 18 366 75 677 300 860 620 25 44 45 86 45 93 0 10 -246 345 -291 396 -4 5
-11 -4 -14 -20z"/>
<path d="M80 935 c0 -15 49 -135 80 -197 60 -121 124 -211 221 -312 182 -190
423 -324 669 -370 45 -9 86 -16 90 -16 4 0 70 87 145 193 76 105 143 198 149
206 9 12 -1 13 -66 7 -162 -14 -364 34 -512 122 -76 45 -190 147 -251 224
l-30 37 -247 54 c-137 29 -248 53 -248 52z"/>
</g>
</svg>
